<?xml version="1.0" standalone="no"?>
<!DOCTYPE svg PUBLIC "-//W3C//DTD SVG 20010904//EN"
 "http://www.w3.org/TR/2001/REC-SVG-20010904/DTD/svg10.dtd">
<svg version="1.0" xmlns="http://www.w3.org/2000/svg"
 width="120.000000pt" height="120.000000pt" viewBox="0 0 120.000000 120.000000"
 preserveAspectRatio="xMidYMid meet">
<metadata>
Created by potrace 1.11, written by Peter Selinger 2001-2013
</metadata>
<g transform="translate(0.000000,120.000000) scale(0.100000,-0.100000)"
fill="#000000" stroke="none">
<path d="M483 875 l-32 -55 239 -1 c132 -1 245 -3 250 -4 6 -1 14 -3 18 -4 14
-2 31 -48 27 -70 -5 -29 -25 -63 -49 -83 -40 -35 -180 -98 -191 -86 -2 2 9 46
25 98 17 52 30 95 30 97 0 2 -33 3 -72 3 -70 0 -74 -2 -113 -38 -22 -20 -78
-71 -125 -112 -86 -76 -162 -144 -186 -168 -8 -7 -14 -12 -14 -9 0 2 21 64 46
137 63 184 66 180 -110 180 l-134 0 -25 -42 -25 -43 94 -3 c52 -1 94 -6 94
-10 0 -4 -31 -93 -69 -197 l-69 -190 31 -3 c57 -6 92 7 147 58 30 28 76 69
102 91 l47 40 -26 -77 c-37 -105 -34 -108 100 -112 134 -3 162 8 178 73 6 25
16 45 21 45 5 0 7 4 4 8 -6 10 14 82 23 83 3 0 13 2 21 4 8 2 28 6 43 9 85 16
245 90 304 141 52 44 74 86 78 146 4 59 -19 99 -71 125 -35 17 -66 19 -309 22
l-270 3 -32 -56z m115 -277 c-2 -7 -12 -41 -22 -76 -17 -58 -20 -61 -30 -40
-7 14 -22 24 -40 26 l-29 4 54 48 c55 50 73 60 67 38z m-51 -170 c-3 -8 -6 -5
-6 6 -1 11 2 17 5 13 3 -3 4 -12 1 -19z"/>
<path d="M739 433 c-1 -5 -1 -12 0 -17 1 -5 -4 -16 -12 -25 -31 -35 -28 -44 4
-12 22 22 30 35 21 38 -6 3 -10 9 -6 14 3 5 3 9 0 9 -3 0 -7 -3 -7 -7z"/>
<path d="M797 394 c-32 -21 -36 -27 -27 -44 14 -25 32 -25 61 0 l24 20 -32
-17 c-17 -10 -35 -14 -39 -10 -10 10 53 65 80 70 18 4 17 4 -4 5 -14 0 -42
-10 -63 -24z"/>
<path d="M860 378 c0 -4 4 -8 9 -8 6 0 12 4 15 8 3 5 -1 9 -9 9 -8 0 -15 -4
-15 -9z"/>
<path d="M720 345 c-14 -8 -20 -14 -14 -15 5 0 19 7 30 15 24 18 16 19 -16 0z"/>
</g>
</svg>
