<?xml version="1.0" standalone="no"?>
<!DOCTYPE svg PUBLIC "-//W3C//DTD SVG 20010904//EN"
 "http://www.w3.org/TR/2001/REC-SVG-20010904/DTD/svg10.dtd">
<svg version="1.0" xmlns="http://www.w3.org/2000/svg"
 width="266.000000pt" height="266.000000pt" viewBox="0 0 266.000000 266.000000"
 preserveAspectRatio="xMidYMid meet">
<metadata>
Created by potrace 1.11, written by Peter Selinger 2001-2013
</metadata>
<g transform="translate(0.000000,266.000000) scale(0.100000,-0.100000)"
fill="#000000" stroke="none">
<path d="M58 1821 c-23 -20 -31 -37 -31 -60 0 -72 87 -108 138 -56 47 46 24
116 -43 135 -29 8 -37 5 -64 -19z"/>
<path d="M639 1748 c-1 -5 -1 -17 -1 -28 0 -11 0 -27 1 -36 1 -8 57 -72 125
-142 68 -70 149 -153 180 -186 l56 -59 -181 -178 c-189 -185 -187 -182 -180
-254 1 -8 527 -12 703 -6 16 1 18 12 16 96 l-1 95 -44 0 c-36 0 -44 -3 -42
-17 1 -10 1 -35 0 -55 l-1 -38 -257 0 -258 0 183 183 182 182 -182 183 -183
182 260 0 260 0 -2 -55 -2 -55 43 0 43 0 1 95 c2 70 -1 95 -10 96 -57 6 -708
2 -709 -3z"/>
<path d="M327 1583 c-39 -45 -18 -110 39 -119 62 -10 103 59 64 109 -25 32
-78 37 -103 10z"/>
<path d="M1170 1310 l0 -260 35 0 35 0 0 68 c0 54 4 72 18 86 18 15 21 13 68
-46 83 -107 86 -110 129 -106 l38 3 -43 55 c-47 58 -69 86 -85 104 -42 47 -43
42 36 122 l73 74 -41 0 c-37 0 -47 -6 -91 -52 -28 -29 -62 -66 -76 -83 l-26
-30 0 163 0 162 -35 0 -35 0 0 -260z"/>
<path d="M1675 1395 c-22 -15 -43 -33 -47 -39 -4 -6 -8 4 -8 22 0 29 -3 32
-32 32 l-33 0 3 -255 3 -255 34 0 35 0 0 96 0 95 25 -20 c88 -68 236 -16 264
94 16 65 13 114 -10 162 -28 58 -67 84 -137 90 -50 4 -62 2 -97 -22z m138 -53
c45 -40 58 -114 32 -180 -32 -78 -131 -96 -187 -33 -24 26 -28 40 -28 87 0 31
7 71 15 89 30 62 118 82 168 37z"/>
<path d="M2132 1400 c-18 -11 -37 -30 -42 -43 -8 -19 -9 -17 -9 16 -1 34 -3
37 -30 37 -16 0 -31 -4 -33 -10 -1 -5 -2 -86 0 -180 l3 -170 34 0 35 0 0 110
c0 149 26 200 104 200 19 0 22 4 18 30 -5 36 -31 40 -80 10z"/>
<path d="M2352 1399 c-62 -31 -95 -85 -98 -161 -3 -67 8 -100 45 -140 52 -58
163 -73 241 -33 67 35 105 141 80 229 -30 107 -161 158 -268 105z m159 -55
c69 -61 62 -188 -13 -234 -50 -30 -94 -26 -133 13 -60 60 -57 168 6 221 36 30
106 30 140 0z"/>
<path d="M55 1388 c-31 -18 -44 -40 -44 -73 0 -82 106 -113 149 -43 19 32 14
79 -12 104 -20 18 -71 25 -93 12z"/>
<path d="M626 1318 c-9 -12 -16 -29 -16 -38 0 -49 63 -77 105 -46 24 17 23 75
-1 93 -28 20 -71 16 -88 -9z"/>
<path d="M322 1125 c-34 -43 -1 -114 54 -115 32 0 64 31 68 65 8 67 -81 103
-122 50z"/>
<path d="M58 950 c-67 -52 -13 -168 66 -144 69 21 88 94 35 138 -37 31 -67 33
-101 6z"/>
</g>
</svg>
